<svg width="60" height="60" preserveAspectRatio="xMidYMid meet" overflow="visible" style="display: block;" viewBox="0 0 60 60" fill="none" xmlns="http://www.w3.org/2000/svg">
<path id="Logomark" d="M30.0008 0C13.4307 0 0 13.4322 0 29.9992C0 46.5663 13.4322 60 30.0008 60C46.5693 60 60 46.5693 60 29.9992C60 13.4292 46.5708 0 30.0008 0ZM18.5212 32.4317C18.7754 30.0613 19.9955 28.0103 21.9572 26.3604C23.9249 24.706 26.4376 23.7947 29.0305 23.7932C30.7228 23.7932 32.3409 24.1474 33.8394 24.8452C35.067 25.4174 36.1735 26.2151 37.0711 27.1717V26.6783C37.0711 26.2862 37.0771 25.8806 37.0832 25.4885C37.0892 25.0859 37.0953 24.6681 37.0953 24.2594C37.0953 23.156 37.0559 21.8694 36.7653 20.7008C36.4686 19.5111 35.9449 18.5741 35.1654 17.84C33.9287 16.6715 31.6824 15.9449 29.303 15.9449H29.2893C27.7681 15.9449 26.3362 16.231 25.1495 16.7744C24.4032 17.115 23.7917 17.5418 23.3331 18.0428C22.7443 18.6861 22.4188 19.4203 22.3401 20.2876C22.2856 20.8885 21.7922 21.3608 21.1867 21.388H21.1398C20.4723 21.388 19.9273 20.8461 19.9258 20.1816V20.1695L19.9304 20.0848V20.0787V20.0742C20.1438 17.6659 21.6408 15.7118 24.1459 14.572C25.6414 13.8894 27.4169 13.5276 29.2772 13.5276C32.3061 13.5291 35.1275 14.4827 36.8274 16.0796C37.9323 17.121 38.671 18.4001 39.0857 19.9909C39.4657 21.4516 39.5171 22.9728 39.5171 24.2685C39.5171 24.6954 39.5111 25.1177 39.505 25.5264V25.5657C39.499 25.9532 39.4944 26.318 39.4944 26.6813V32.2092C39.4944 32.2364 39.4959 32.2773 39.4959 32.3227C39.4959 32.5392 39.4732 32.7284 39.4278 32.8994C39.3461 33.2006 39.1947 33.4322 38.9783 33.5851C38.7982 33.7123 38.5741 33.7789 38.3289 33.7789H38.3213C38.0822 33.7789 37.8582 33.7077 37.675 33.573C37.5267 33.4655 37.4026 33.3187 37.3042 33.1371C37.1362 32.8252 37.0907 32.4998 37.0756 32.3923C37.0726 32.3666 37.0696 32.3454 37.068 32.3333V32.3303C36.3687 28.3161 32.4998 26.2166 29.0305 26.2151C27.0204 26.2151 25.0723 26.9129 23.5465 28.1798C22.0389 29.4316 21.111 30.9332 20.9309 32.7011C20.8673 33.3142 20.3527 33.7773 19.7321 33.7773C19.0903 33.7773 18.5635 33.2748 18.5212 32.6436L18.5151 32.5165L18.5242 32.4302L18.5212 32.4317ZM41.8346 44.9345V44.986L41.7089 45.0556L41.609 45.1101C41.1595 45.3584 40.722 45.5067 40.2679 45.5657C40.1317 45.5839 39.9955 45.593 39.8592 45.593C39.1796 45.593 38.5439 45.3553 38.0701 44.9254C37.5237 44.429 37.1937 43.6812 37.1513 42.8517C35.2638 44.6954 32.4105 45.702 29.0305 45.702C23.772 45.6974 19.054 41.6257 18.5121 36.7138C18.5075 36.6699 18.5045 36.626 18.5045 36.5822C18.5045 35.9131 19.0494 35.3667 19.72 35.3667C20.336 35.3667 20.8507 35.8268 20.9158 36.4353C21.1035 38.1594 22.0828 39.9561 23.6025 41.2397C25.1616 42.5566 27.0885 43.2831 29.029 43.2831C31.8323 43.2831 33.9802 42.5672 35.4121 41.1564C36.57 40.0166 37.2073 38.4167 37.2073 36.6472V36.6321V36.6245C37.2103 36.5716 37.2239 36.4308 37.2769 36.2567C37.3647 35.9721 37.51 35.7481 37.7083 35.5922C37.893 35.4469 38.1337 35.3667 38.3834 35.3667H38.3879C38.6256 35.3667 38.8345 35.4121 39.007 35.4999C39.1841 35.5907 39.331 35.7315 39.4324 35.9086C39.6095 36.2234 39.6261 36.5837 39.6292 36.897V37.0923V37.8279C39.6292 39.2886 39.6246 40.7538 39.5641 42.6201V42.6671C39.5626 42.9229 39.6397 43.0848 39.6942 43.1318C39.7063 43.1424 39.7381 43.1711 39.8547 43.1726C39.885 43.1726 39.9183 43.1711 39.9561 43.1651C40.1029 43.1469 40.2634 43.0879 40.445 42.9864C40.613 42.8941 40.8038 42.8442 40.9975 42.8442C41.3668 42.8442 41.7241 43.0213 41.9541 43.3179C42.1206 43.5314 42.2115 43.7978 42.2115 44.0672C42.2115 44.3942 42.0722 44.7105 41.8315 44.9345H41.8346Z" fill="var(--fill-0, #57A882)"/>
</svg>
