<svg width="11" height="11" preserveAspectRatio="xMidYMid meet" overflow="visible" style="display: block;" viewBox="0 0 10 10" fill="none" xmlns="http://www.w3.org/2000/svg">
<path d="M5 2.69231C4.54358 2.69231 4.09741 2.82765 3.71791 3.08122C3.33842 3.3348 3.04263 3.69521 2.86797 4.11688C2.69331 4.53856 2.64761 5.00256 2.73665 5.45021C2.82569 5.89786 3.04548 6.30905 3.36822 6.63179C3.69095 6.95452 4.10214 7.17431 4.54979 7.26335C4.99744 7.35239 5.46144 7.30669 5.88312 7.13203C6.30479 6.95737 6.6652 6.66158 6.91878 6.28209C7.17235 5.90259 7.30769 5.45642 7.30769 5C7.30706 4.38816 7.06372 3.80156 6.63108 3.36892C6.19844 2.93628 5.61184 2.69294 5 2.69231ZM5 6.53846C4.69572 6.53846 4.39828 6.44823 4.14528 6.27918C3.89228 6.11014 3.69509 5.86986 3.57865 5.58874C3.4622 5.30763 3.43174 4.99829 3.4911 4.69986C3.55046 4.40143 3.69699 4.1273 3.91214 3.91214C4.1273 3.69699 4.40143 3.55046 4.69986 3.4911C4.99829 3.43174 5.30763 3.4622 5.58874 3.57865C5.86986 3.69509 6.11014 3.89228 6.27918 4.14528C6.44823 4.39828 6.53846 4.69572 6.53846 5C6.53846 5.40803 6.37637 5.79934 6.08786 6.08786C5.79934 6.37637 5.40803 6.53846 5 6.53846ZM7.30769 0H2.69231C1.9785 0.00076357 1.29414 0.284662 0.789402 0.789402C0.284662 1.29414 0.00076357 1.9785 0 2.69231V7.30769C0.00076357 8.0215 0.284662 8.70586 0.789402 9.2106C1.29414 9.71534 1.9785 9.99924 2.69231 10H7.30769C8.0215 9.99924 8.70586 9.71534 9.2106 9.2106C9.71534 8.70586 9.99924 8.0215 10 7.30769V2.69231C9.99924 1.9785 9.71534 1.29414 9.2106 0.789402C8.70586 0.284662 8.0215 0.00076357 7.30769 0ZM9.23077 7.30769C9.23077 7.81772 9.02816 8.30687 8.66751 8.66751C8.30687 9.02816 7.81772 9.23077 7.30769 9.23077H2.69231C2.18228 9.23077 1.69313 9.02816 1.33249 8.66751C0.97184 8.30687 0.769231 7.81772 0.769231 7.30769V2.69231C0.769231 2.18228 0.97184 1.69313 1.33249 1.33249C1.69313 0.97184 2.18228 0.769231 2.69231 0.769231H7.30769C7.81772 0.769231 8.30687 0.97184 8.66751 1.33249C9.02816 1.69313 9.23077 2.18228 9.23077 2.69231V7.30769ZM8.07692 2.5C8.07692 2.6141 8.04309 2.72565 7.97969 2.82052C7.9163 2.9154 7.8262 2.98934 7.72078 3.03301C7.61536 3.07667 7.49936 3.0881 7.38745 3.06584C7.27554 3.04358 7.17274 2.98863 7.09205 2.90795C7.01137 2.82726 6.95642 2.72446 6.93416 2.61255C6.9119 2.50064 6.92333 2.38464 6.96699 2.27922C7.01066 2.1738 7.0846 2.0837 7.17948 2.02031C7.27435 1.95691 7.3859 1.92308 7.5 1.92308C7.65301 1.92308 7.79975 1.98386 7.90795 2.09205C8.01614 2.20025 8.07692 2.34699 8.07692 2.5Z" fill="#57A882"/>
</svg>
