<svg width="8" height="14" preserveAspectRatio="xMidYMid meet" overflow="visible" style="display: block;" viewBox="0 0 8 13.3074" fill="none" xmlns="http://www.w3.org/2000/svg">
<path id="Vector" d="M6.66667 0H1.33333C0.979711 0 0.640573 0.150217 0.390524 0.417605C0.140476 0.684993 0 1.04765 0 1.42579V11.8816C0 12.2597 0.140476 12.6224 0.390524 12.8898C0.640573 13.1572 0.979711 13.3074 1.33333 13.3074H6.66667C7.02029 13.3074 7.35943 13.1572 7.60948 12.8898C7.85952 12.6224 8 12.2597 8 11.8816V1.42579C8 1.04765 7.85952 0.684993 7.60948 0.417605C7.35943 0.150217 7.02029 0 6.66667 0ZM7.11111 11.8816C7.11111 12.0076 7.06429 12.1285 6.98094 12.2177C6.89759 12.3068 6.78454 12.3569 6.66667 12.3569H1.33333C1.21546 12.3569 1.10241 12.3068 1.01906 12.2177C0.935714 12.1285 0.888889 12.0076 0.888889 11.8816V1.42579C0.888889 1.29974 0.935714 1.17886 1.01906 1.08973C1.10241 1.0006 1.21546 0.950528 1.33333 0.950528H6.66667C6.78454 0.950528 6.89759 1.0006 6.98094 1.08973C7.06429 1.17886 7.11111 1.29974 7.11111 1.42579V11.8816ZM4.66667 2.61395C4.66667 2.75495 4.62757 2.89278 4.55431 3.01002C4.48106 3.12725 4.37694 3.21862 4.25512 3.27258C4.1333 3.32654 3.99926 3.34066 3.86994 3.31315C3.74062 3.28564 3.62183 3.21775 3.5286 3.11805C3.43536 3.01835 3.37187 2.89132 3.34614 2.75303C3.32042 2.61474 3.33362 2.4714 3.38408 2.34114C3.43454 2.21087 3.51999 2.09953 3.62962 2.0212C3.73925 1.94287 3.86815 1.90106 4 1.90106C4.17681 1.90106 4.34638 1.97616 4.4714 2.10986C4.59643 2.24355 4.66667 2.42488 4.66667 2.61395Z" fill="var(--fill-0, #000000)"/>
</svg>
