<svg width="11" height="11" preserveAspectRatio="xMidYMid meet" overflow="visible" style="display: block;" viewBox="0 0 11 11" fill="none" xmlns="http://www.w3.org/2000/svg">
<path id="Vector" d="M10.4704 7.39526L7.87936 6.2342L7.87221 6.2309C7.7377 6.17337 7.59096 6.15028 7.44528 6.16372C7.2996 6.17717 7.15957 6.22672 7.03786 6.3079C7.02352 6.31735 7.00974 6.32764 6.99661 6.3387L5.65789 7.47996C4.80979 7.06801 3.93418 6.199 3.52223 5.36189L4.66514 4.00283C4.67614 3.98908 4.68659 3.97533 4.69649 3.96048C4.77592 3.83909 4.82412 3.69995 4.83679 3.55544C4.84945 3.41093 4.8262 3.26552 4.76909 3.13217V3.12557L3.60473 0.530094C3.52924 0.355888 3.39943 0.210769 3.23468 0.116401C3.06993 0.022033 2.87908 -0.0165229 2.69062 0.00648876C1.94535 0.104558 1.26126 0.470566 0.766124 1.03615C0.270985 1.60174 -0.00134252 2.32822 4.97679e-06 3.07992C4.97679e-06 7.44696 3.55303 11 7.92006 11C8.67176 11.0013 9.39824 10.729 9.96382 10.2339C10.5294 9.73873 10.8954 9.05464 10.9935 8.30937C11.0165 8.12097 10.9781 7.93017 10.8838 7.76543C10.7895 7.60069 10.6445 7.47084 10.4704 7.39526ZM7.92006 10.12C6.05355 10.1179 4.26407 9.37557 2.94425 8.05575C1.62442 6.73592 0.882049 4.94643 0.880011 3.07992C0.877942 2.54283 1.07144 2.02336 1.42437 1.6185C1.7773 1.21365 2.26553 0.951104 2.79788 0.879897C2.79765 0.882092 2.79765 0.884303 2.79788 0.886497L3.95288 3.47152L2.81602 4.83224C2.80446 4.84549 2.79398 4.85966 2.78467 4.87459C2.70191 5.00159 2.65335 5.14783 2.64372 5.29911C2.63408 5.4504 2.66369 5.60161 2.72967 5.73809C3.22798 6.75725 4.25484 7.77641 5.28499 8.27417C5.42247 8.33954 5.57456 8.36812 5.72639 8.35713C5.87823 8.34614 6.02461 8.29595 6.15125 8.21147C6.1654 8.202 6.17899 8.19171 6.19195 8.18067L7.52901 7.03996L10.114 8.19772H10.1201C10.0497 8.73082 9.78759 9.22003 9.38266 9.57384C8.97773 9.92764 8.45778 10.1218 7.92006 10.12Z" fill="var(--fill-0, #4B9AA0)"/>
</svg>
